# xmcd
#
# Track frame offsets: 
#        150
#        17814
#        34872
#        52308
#        70534
#        89686
#        104937
#        119298
#        134269
#        154026
#        168225
#        189329
#
# Disc length: 2709 seconds
#
# Revision: 2
# Processed by: cddbd v1.5.2PL0 Copyright (c) Steve Scherf et al.
# Submitted via: ExactAudioCopy v1.1
#
DISCID=a70a930c
DTITLE=Various Artist - Christmas Rock
DYEAR=2000
DGENRE=Christmas
TTITLE0=Chris Rea - Driving Home For Christmas
TTITLE1=Brian Harold May - Thank God It´s Christmas
TTITLE2=John Willson Lennon - Happy Christmas
TTITLE3=Michael Donald Chapman - Lonely This Christmas
TTITLE4=Elton John - Cold As Christmas
TTITLE5=Yull-Win Mak - It´s Christmas
TTITLE6=Felix Bernard - Winter Wonderland
TTITLE7=Jester J. Hairston - Mary´s Boy  Child
TTITLE8=Elton John - Step Into Christmas
TTITLE9=Marvin Lee Broadie - Run Rudolph Run
TTITLE10=Charles Mose Brown - Please Come Home For Christmas
TTITLE11=John Frederick Coots - Santa Claus Is Coming To Town
EXTD=
EXTT0=
EXTT1=
EXTT2=
EXTT3=
EXTT4=
EXTT5=
EXTT6=
EXTT7=
EXTT8=
EXTT9=
EXTT10=
EXTT11=
PLAYORDER=
